# xmcd
#
# Track frame offsets: 
#        150
#        15039
#        23122
#        39361
#        54250
#        67678
#        78968
#        91158
#        105411
#        121952
#        134741
#
# Disc length: 2089 seconds
#
# Revision: 0
# Processed by: cddbd v1.5.2PL0 Copyright (c) Steve Scherf et al.
# Submitted via: ExactAudioCopy v1.2
#
DISCID=7208270b
DTITLE=Johnny Stronghands - Times Are Too Good
DYEAR=2019
DGENRE=Blues
TTITLE0=Gravel Road Blues
TTITLE1=Baby Please Don't Go
TTITLE2=Left Me
TTITLE3=In the Water
TTITLE4=Junior's Song
TTITLE5=Poor Old Mattie
TTITLE6=Johnny's Blues
TTITLE7=Catfish Blues
TTITLE8=Road No More
TTITLE9=Lord, I Wanna Die Easy
TTITLE10=Way Down There
EXTD=
EXTT0=
EXTT1=
EXTT2=
EXTT3=
EXTT4=
EXTT5=
EXTT6=
EXTT7=
EXTT8=
EXTT9=
EXTT10=
PLAYORDER=
